<svg id="Layer_1" data-name="Layer 1" xmlns="http://www.w3.org/2000/svg" xmlns:xlink="http://www.w3.org/1999/xlink" viewBox="0 0 43.93 296.54"><defs><style>.cls-1{fill:#18182c;}.cls-2{fill:url(#linear-gradient);}.cls-3{fill:url(#radial-gradient);}</style><linearGradient id="linear-gradient" x1="9.15" y1="181.22" x2="34.78" y2="181.22" gradientUnits="userSpaceOnUse"><stop offset="0" stop-color="#4955a1"/><stop offset="0.31" stop-color="#404a8d"/><stop offset="0.94" stop-color="#292f5b"/><stop offset="0.97" stop-color="#282e59"/><stop offset="1" stop-color="#4d5783"/></linearGradient><radialGradient id="radial-gradient" cx="21.97" cy="53.4" r="12.5" gradientUnits="userSpaceOnUse"><stop offset="0" stop-color="#c3cce2"/><stop offset="0.9" stop-color="#b0b9d8"/><stop offset="1" stop-color="#aeb6d7"/></radialGradient></defs><title>BallPoll</title><path class="cls-1" d="M2.07,0H41.86a2.07,2.07,0,0,1,2.07,2.07V296.54a0,0,0,0,1,0,0H0a0,0,0,0,1,0,0V2.07A2.07,2.07,0,0,1,2.07,0Z"/><path class="cls-2" d="M11.53,65.9H32.4a2.38,2.38,0,0,1,2.38,2.38V296.54a0,0,0,0,1,0,0H9.15a0,0,0,0,1,0,0V68.28A2.38,2.38,0,0,1,11.53,65.9Z"/><circle class="cls-3" cx="21.97" cy="53.4" r="12.5"/></svg>